<svg width="32" height="32" viewBox="0 0 32 32" fill="none" xmlns="http://www.w3.org/2000/svg">
<path fill-rule="evenodd" clip-rule="evenodd" d="M19.0001 3.33333C19.0001 3.14924 18.8508 3 18.6667 3H9.33341C7.30837 3 5.66675 4.64162 5.66675 6.66667V25.3333C5.66675 27.3584 7.30837 29 9.33341 29H22.6667C24.6918 29 26.3334 27.3584 26.3334 25.3333V12.1961C26.3334 12.012 26.1842 11.8627 26.0001 11.8627H20.0001C19.4478 11.8627 19.0001 11.415 19.0001 10.8627V3.33333ZM20.0001 16.3333C20.5524 16.3333 21.0001 16.781 21.0001 17.3333C21.0001 17.8856 20.5524 18.3333 20.0001 18.3333H12.0001C11.4478 18.3333 11.0001 17.8856 11.0001 17.3333C11.0001 16.781 11.4478 16.3333 12.0001 16.3333H20.0001ZM20.0001 21.6667C20.5524 21.6667 21.0001 22.1144 21.0001 22.6667C21.0001 23.219 20.5524 23.6667 20.0001 23.6667H12.0001C11.4478 23.6667 11.0001 23.219 11.0001 22.6667C11.0001 22.1144 11.4478 21.6667 12.0001 21.6667H20.0001Z" fill="currentColor"/>
<path d="M21.0001 3.76551C21.0001 3.51952 21.2569 3.36333 21.4483 3.51785C21.6096 3.648 21.7545 3.80048 21.8781 3.97273L25.8957 9.56993C25.9871 9.69736 25.8881 9.86275 25.7312 9.86275H21.3334C21.1493 9.86275 21.0001 9.71351 21.0001 9.52941V3.76551Z" fill="currentColor"/>
</svg>
