<svg width="22" height="20" viewBox="0 0 22 20" fill="none" xmlns="http://www.w3.org/2000/svg">
<path d="M1.99902 1L19.999 19M8.8433 7.91364C8.32066 8.45355 7.99902 9.18921 7.99902 10C7.99902 11.6569 9.34217 13 10.999 13C11.8215 13 12.5667 12.669 13.1086 12.133M5.49902 4.64715C3.59972 5.90034 2.15305 7.78394 1.45703 9.99997C2.73128 14.0571 6.52159 17 10.9992 17C12.9881 17 14.8414 16.4194 16.3988 15.4184M9.99902 3.04939C10.328 3.01673 10.6617 3 10.9992 3C15.4769 3 19.2672 5.94291 20.5414 10C20.2607 10.894 19.8577 11.7338 19.3522 12.5" stroke="black" stroke-width="2" stroke-linecap="round" stroke-linejoin="round"/>
</svg>
